<?xml version="1.0" encoding="UTF-8" standalone="no"?>
<!-- Created with Inkscape (http://www.inkscape.org/) -->

<svg
   width="812"
   height="812"
   viewBox="0 0 214.84167 214.84167"
   version="1.1"
   id="svg1"
   xml:space="preserve"
   sodipodi:docname="aquamorph-logo.svg"
   inkscape:export-filename="aquamorph-logo.svg"
   inkscape:export-xdpi="96"
   inkscape:export-ydpi="96"
   inkscape:version="1.3.2 (091e20e, 2023-11-25, custom)"
   xmlns:inkscape="http://www.inkscape.org/namespaces/inkscape"
   xmlns:sodipodi="http://sodipodi.sourceforge.net/DTD/sodipodi-0.dtd"
   xmlns:xlink="http://www.w3.org/1999/xlink"
   xmlns="http://www.w3.org/2000/svg"
   xmlns:svg="http://www.w3.org/2000/svg"><sodipodi:namedview
     id="namedview1"
     pagecolor="#ffff00"
     bordercolor="#000000"
     borderopacity="0.25"
     inkscape:showpageshadow="2"
     inkscape:pageopacity="0.0"
     inkscape:pagecheckerboard="0"
     inkscape:deskcolor="#d1d1d1"
     inkscape:document-units="px"
     inkscape:zoom="0.36295478"
     inkscape:cx="-166.68743"
     inkscape:cy="659.86182"
     inkscape:window-width="1920"
     inkscape:window-height="1001"
     inkscape:window-x="-9"
     inkscape:window-y="-9"
     inkscape:window-maximized="1"
     inkscape:current-layer="layer1" /><defs
     id="defs1"><linearGradient
       id="linearGradient42"
       inkscape:collect="always"><stop
         style="stop-color:#4ca6f5;stop-opacity:1;"
         offset="0"
         id="stop39" /><stop
         style="stop-color:#0066cc;stop-opacity:1;"
         offset="1"
         id="stop42" /></linearGradient><linearGradient
       inkscape:collect="always"
       xlink:href="#linearGradient42"
       id="linearGradient61"
       x1="29.028814"
       y1="65.993912"
       x2="106.89151"
       y2="65.993912"
       gradientUnits="userSpaceOnUse"
       gradientTransform="translate(37.312975,80.766666)" /><linearGradient
       inkscape:collect="always"
       xlink:href="#linearGradient42"
       id="linearGradient43"
       gradientUnits="userSpaceOnUse"
       gradientTransform="translate(37.312975,80.766666)"
       x1="29.028814"
       y1="65.993912"
       x2="106.89151"
       y2="65.993912" /><linearGradient
       inkscape:collect="always"
       xlink:href="#linearGradient42"
       id="linearGradient44"
       gradientUnits="userSpaceOnUse"
       gradientTransform="translate(37.312975,80.766666)"
       x1="29.028814"
       y1="65.993912"
       x2="106.89151"
       y2="65.993912" /><linearGradient
       inkscape:collect="always"
       xlink:href="#linearGradient42"
       id="linearGradient45"
       gradientUnits="userSpaceOnUse"
       gradientTransform="translate(37.312975,80.766666)"
       x1="29.028814"
       y1="65.993912"
       x2="106.89151"
       y2="65.993912" /><linearGradient
       inkscape:collect="always"
       xlink:href="#linearGradient42"
       id="linearGradient46"
       gradientUnits="userSpaceOnUse"
       gradientTransform="translate(37.312975,80.766666)"
       x1="29.028814"
       y1="65.993912"
       x2="106.89151"
       y2="65.993912" /><linearGradient
       inkscape:collect="always"
       xlink:href="#linearGradient42"
       id="linearGradient47"
       gradientUnits="userSpaceOnUse"
       gradientTransform="translate(37.312975,80.766666)"
       x1="29.028814"
       y1="65.993912"
       x2="106.89151"
       y2="65.993912" /><linearGradient
       inkscape:collect="always"
       xlink:href="#linearGradient42"
       id="linearGradient48"
       gradientUnits="userSpaceOnUse"
       gradientTransform="translate(37.312975,80.766666)"
       x1="29.028814"
       y1="65.993912"
       x2="106.89151"
       y2="65.993912" /><linearGradient
       inkscape:collect="always"
       xlink:href="#linearGradient42"
       id="linearGradient49"
       gradientUnits="userSpaceOnUse"
       gradientTransform="translate(37.312975,80.766666)"
       x1="29.028814"
       y1="65.993912"
       x2="106.89151"
       y2="65.993912" /><linearGradient
       inkscape:collect="always"
       xlink:href="#linearGradient42"
       id="linearGradient50"
       gradientUnits="userSpaceOnUse"
       gradientTransform="translate(37.312975,80.766666)"
       x1="29.028814"
       y1="65.993912"
       x2="106.89151"
       y2="65.993912" /><linearGradient
       inkscape:collect="always"
       xlink:href="#linearGradient42"
       id="linearGradient51"
       gradientUnits="userSpaceOnUse"
       gradientTransform="translate(37.312975,80.766666)"
       x1="29.028814"
       y1="65.993912"
       x2="106.89151"
       y2="65.993912" /><linearGradient
       inkscape:collect="always"
       xlink:href="#linearGradient42"
       id="linearGradient52"
       gradientUnits="userSpaceOnUse"
       gradientTransform="translate(37.312975,80.766666)"
       x1="29.028814"
       y1="65.993912"
       x2="106.89151"
       y2="65.993912" /><linearGradient
       inkscape:collect="always"
       xlink:href="#linearGradient42"
       id="linearGradient53"
       gradientUnits="userSpaceOnUse"
       gradientTransform="translate(37.312975,80.766666)"
       x1="29.028814"
       y1="65.993912"
       x2="106.89151"
       y2="65.993912" /></defs><g
     inkscape:label="Layer 1"
     inkscape:groupmode="layer"
     id="layer1"
     transform="translate(-66.341653,-98.758512)"><g
       id="g1"
       transform="matrix(1.5642236,0,0,1.5642236,9.0917539,-26.107983)"><path
         id="path2-2"
         style="fill:url(#linearGradient43);fill-opacity:1;stroke-width:0.204928"
         d="m 104.57915,98.759347 c -0.27369,-0.0072 -0.54555,0.03165 -0.81132,0.134875 -4.865697,2.897718 -4.865982,2.897498 -9.988024,5.261178 -1.651612,0.7889 -3.274069,1.6246 -4.887041,2.50217 -1.013802,0.55268 -2.023281,1.11445 -3.053043,1.63194 -1.539782,0.75724 -3.03411,1.55381 -4.552694,2.3735 -0.06705,21.50073 -0.132304,42.36965 -0.197404,63.238 -1.467822,-1.5846 -2.604606,-3.15012 -3.358968,-5.25084 -1.051392,-3.73615 -0.412186,-7.55988 1.191658,-10.95127 0.06628,-0.138 0.131037,-0.27172 0.195337,-0.40566 -0.201172,-0.0724 -0.396435,-0.14261 -0.591695,-0.21291 -2.207874,0.98084 -4.313939,2.60666 -5.948991,4.47105 -0.12338,0.14478 -0.243018,0.28528 -0.362768,0.42581 -1.146152,1.29818 -2.292529,2.58736 -3.216341,4.08451 -2.170334,3.9013 -3.266372,8.17217 -2.30632,12.73669 0.66746,2.63143 1.64279,6.85437 3.999756,8.38192 0.11552,0.0459 0.227392,0.0904 0.339514,0.13487 v 0.42582 c 3.111556,3.23011 7.397707,5.08893 11.557435,6.06733 0.161192,0.0365 0.31742,0.0721 0.473872,0.10748 5.73816,1.31918 12.420068,1.12872 18.016987,-0.79013 0.24493,-0.0933 0.48266,-0.1838 0.72037,-0.2744 2.3474,-0.89313 4.65795,-1.87837 6.9603,-2.8975 4.12628,-1.827 8.24011,-3.72798 12.65039,-4.59559 0.44398,-0.0836 0.88627,-0.16878 1.32757,-0.26768 2.23752,-0.50746 4.45356,-0.60075 6.7324,-0.60875 0.16464,-1.6e-4 0.32442,-8.2e-4 0.48421,-0.001 2.85896,-0.0141 5.62495,0.17723 8.42584,0.85421 0.25819,0.0658 0.25799,0.0662 0.51108,0.13074 1.57264,0.39189 3.0988,0.86436 4.62143,1.44126 0.24977,0.0987 0.2497,0.0985 0.49454,0.19533 0.0671,-0.14479 0.1323,-0.28528 0.1974,-0.42581 -2.30303,-2.76398 -4.65898,-5.31205 -7.70237,-7.12618 -0.1433,-0.0837 -0.28207,-0.16478 -0.42116,-0.24598 -0.57298,-0.33976 -1.14202,-0.63268 -1.7384,-0.93173 -1.07286,-0.43428 -2.11449,-0.85586 -3.15588,-1.27744 -0.0996,-33.44018 -0.0993,-33.44114 -0.19688,-66.21921 -2.64017,-1.26676 -5.27033,-2.54027 -7.92665,-3.76308 -0.7042,-0.32305 -1.40792,-0.64741 -2.1115,-0.97203 -0.15238,-0.0704 -0.30064,-0.13841 -0.44855,-0.20671 -1.37763,-0.636 -2.75176,-1.28067 -4.12378,-1.93063 -1.03309,-0.48974 -2.06678,-0.97758 -3.10059,-1.46554 -0.42776,-0.20189 -0.85554,-0.40384 -1.28312,-0.60617 -0.79155,-0.37458 -1.58335,-0.74836 -2.37608,-1.11983 -0.30991,-0.14498 -0.61987,-0.29034 -0.92966,-0.43563 -0.43775,-0.20757 -0.87532,-0.415149 -1.31414,-0.620115 -0.13807,-0.06433 -0.27216,-0.126696 -0.40617,-0.189136 -0.73277,-0.350882 -1.5695,-0.786183 -2.39055,-0.807702 z m 1.16478,5.516463 c 2.65266,1.22202 5.29886,2.45812 7.93854,3.71243 0.34474,0.16361 0.68982,0.32736 1.03456,0.49093 0.71729,0.34035 1.4346,0.6806 2.15181,1.02112 1.677,0.79615 3.35429,1.59181 5.03173,2.38694 0.52417,0.2485 1.04838,0.49709 1.57251,0.74569 0.32223,0.15279 0.64411,0.30559 0.96635,0.45837 0.14408,0.0684 0.28822,0.13626 0.43667,0.2067 0.204,0.0967 0.20426,0.0967 0.41238,0.19534 0.1162,0.0551 0.23219,0.11066 0.35191,0.16743 0.5987,0.28108 1.19916,0.55779 1.79938,0.83509 -0.004,0.30305 -0.004,0.30319 -0.008,0.61237 -0.0341,2.82115 -0.0635,5.64234 -0.091,8.46357 -0.004,0.35992 -0.004,0.35988 -0.007,0.72708 -0.10897,11.33511 -0.10826,22.67007 -0.10387,34.00568 9e-5,0.22173 4.9e-4,0.44333 5.2e-4,0.67179 0.002,5.75558 0.006,11.51159 0.0119,17.26717 -0.12467,-0.0188 -0.24931,-0.038 -0.37776,-0.0574 -0.57026,-0.086 -1.14066,-0.17111 -1.71101,-0.25632 -0.19613,-0.0297 -0.39221,-0.0593 -0.59427,-0.0899 -1.33543,-0.19879 -2.64834,-0.34571 -3.99821,-0.32866 -0.19399,0.002 -0.38769,0.003 -0.58756,0.005 -3.61935,0.085 -7.12973,1.04018 -10.61279,2.03295 -0.7686,0.21574 -1.53883,0.42368 -2.30942,0.63097 -0.2178,0.0587 -0.21808,0.059 -0.44028,0.11885 -0.35468,0.0956 -0.70926,0.19083 -1.06402,0.28629 -0.004,-6.92939 -0.008,-13.85849 -0.0103,-20.78788 -2.5e-4,-0.81996 -2.8e-4,-1.64035 -5.1e-4,-2.46031 -6e-5,-0.16323 -4.7e-4,-0.32638 -5.2e-4,-0.49455 -7.5e-4,-2.63534 -0.002,-5.27063 -0.004,-7.90597 -0.001,-2.7085 -0.003,-5.4171 -0.003,-8.1256 -2.7e-4,-1.66835 -0.001,-3.33653 -0.003,-5.00487 -0.001,-1.28401 -7.7e-4,-2.56795 -5.1e-4,-3.85196 -5e-5,-0.52328 -4.8e-4,-1.04665 -0.001,-1.56993 -0.004,-2.64085 0.0206,-5.26841 0.17622,-7.90443 0.0873,-1.53889 0.0687,-3.08134 0.0636,-4.62245 -3.7e-4,-0.33793 -4.3e-4,-0.67596 -5.2e-4,-1.01389 -7.4e-4,-0.874 -0.003,-1.74808 -0.005,-2.62207 -0.002,-0.89803 -0.003,-1.79586 -0.004,-2.69389 -0.002,-1.75065 -0.005,-3.50123 -0.01,-5.25187 z m -4.93096,5.53558 v 2.98121 c -0.33281,0.14656 -0.66532,0.29289 -1.008209,0.4439 -1.278912,0.57539 -2.53246,1.20177 -3.784782,1.84123 -2.282944,1.16535 -4.576617,2.29386 -6.899321,3.36465 -0.189612,0.0884 -0.379272,0.17667 -0.574642,0.26769 -0.164782,0.0758 -0.329414,0.15186 -0.499194,0.22996 -0.461832,0.22901 -0.461966,0.22915 -0.877466,0.58911 -0.359882,0.29001 -0.360006,0.2899 -0.754476,0.2899 -0.005,-0.32823 -0.0086,-0.65669 -0.01188,-0.98495 -0.002,-0.1828 -0.0042,-0.36563 -0.0072,-0.55397 0.0217,-0.66602 0.04773,-1.22384 0.216524,-1.8681 0.4705,-0.3043 0.470755,-0.30426 1.099675,-0.51729 0.23324,-0.0861 0.466107,-0.17224 0.706417,-0.26096 0.186372,-0.0683 0.186561,-0.0683 0.376721,-0.13798 0.645582,-0.25125 1.265551,-0.55951 1.888773,-0.86868 0.12959,-0.0638 0.259231,-0.12755 0.392741,-0.19327 0.4064,-0.20046 0.812571,-0.40207 1.218531,-0.60358 0.285032,-0.14066 0.570135,-0.28119 0.855245,-0.42168 1.333864,-0.65787 2.6661,-1.31991 3.997172,-1.98437 0.328422,-0.16361 0.327956,-0.16332 0.663008,-0.33022 0.40717,-0.20305 0.814128,-0.40725 1.220598,-0.61184 0.178902,-0.0893 0.357763,-0.17826 0.542085,-0.27027 0.23223,-0.1167 0.232309,-0.11712 0.46922,-0.23616 0.37602,-0.16432 0.37603,-0.16433 0.7705,-0.16433 z m -0.19689,9.36893 c 0.0976,1.37015 0.0972,1.36996 0.19689,2.76779 -0.58233,0.34402 -1.165743,0.68515 -1.750283,1.02475 -0.16221,0.0962 -0.324313,0.19234 -0.491443,0.29145 -0.965773,0.55796 -1.885005,0.95544 -2.938838,1.27021 -1.122273,0.37769 -2.188534,0.9222 -3.263367,1.43247 -5.014935,2.36876 -5.015156,2.36885 -5.954159,2.36885 v -2.55489 c 11.563403,-6.60051 11.563906,-6.60063 14.2012,-6.60063 z m -0.1974,9.58133 v 2.9807 c -0.591903,0.23714 -0.591946,0.23711 -1.195796,0.47904 -0.459884,0.18639 -0.919253,0.37414 -1.378727,0.56172 -0.42115,0.17179 -0.842566,0.34323 -1.264006,0.51418 -2.836512,1.15188 -5.647697,2.30878 -8.359179,3.77961 -0.15352,0.083 -0.306918,0.1662 -0.465088,0.25167 -0.19726,0.10941 -0.197692,0.10904 -0.398942,0.22066 -0.35036,0.15491 -0.350362,0.15503 -0.942062,0.15503 v -2.76779 c 2.199888,-1.25813 4.491405,-2.22215 6.804753,-3.20704 0.591714,-0.25305 1.183531,-0.50667 1.775085,-0.76016 0.37823,-0.16203 0.756415,-0.32371 1.134815,-0.48524 1.172104,-0.50137 2.336926,-1.01671 3.49436,-1.5565 0.400237,-0.16599 0.400307,-0.16588 0.794787,-0.16588 z m 0,9.58133 v 2.7683 c -0.52176,0.22652 -1.043854,0.45261 -1.565799,0.67851 -0.17107,0.0741 -0.342055,0.14845 -0.518315,0.2248 -1.146995,0.49555 -2.295903,0.98485 -3.446818,1.46968 -4.491195,1.86229 -4.491369,1.86233 -8.867159,4.01474 -0.0202,-0.47422 -0.0257,-0.94949 -0.0248,-1.42421 -0.007,-0.39643 -0.0071,-0.3965 -0.01395,-0.80098 0.2632,-0.84403 0.318656,-0.89617 1.010791,-1.28158 0.396885,-0.18523 0.796473,-0.36401 1.197343,-0.53898 0.2652,-0.12378 0.530218,-0.24832 0.794783,-0.37362 0.931435,-0.43906 1.867802,-0.86533 2.804997,-1.28985 0.16566,-0.0752 0.331098,-0.15036 0.501778,-0.22789 7.094925,-3.21858 7.095161,-3.21892 8.127159,-3.21892 z m 0,9.36893 v 2.76779 c -0.34679,0.15563 -0.693802,0.31147 -1.051102,0.47181 -0.788206,0.35438 -1.575213,0.71117 -2.360579,1.0728 -2.352322,1.07812 -4.723793,2.08985 -7.115845,3.05976 -0.14109,0.0574 -0.281994,0.11498 -0.427364,0.17415 -0.40111,0.16299 -0.802411,0.32483 -1.204061,0.48628 -0.23222,0.0935 -0.464573,0.18686 -0.703833,0.28319 -0.549026,0.20076 -0.549142,0.20102 -0.943612,0.20102 0.0119,-0.4482 0.02919,-0.89625 0.04909,-1.34411 0.009,-0.24949 0.01851,-0.49896 0.02791,-0.75602 0.12019,-0.66787 0.120068,-0.66809 0.463538,-1.00253 0.452936,-0.30944 0.881788,-0.52394 1.381828,-0.73122 0.185146,-0.0775 0.369919,-0.15475 0.560689,-0.23461 0.19928,-0.0819 0.398781,-0.16372 0.604097,-0.24805 0.20731,-0.0864 0.414786,-0.17301 0.628386,-0.262 0.663566,-0.27606 1.32788,-0.55004 1.992126,-0.82423 0.44035,-0.18285 0.88059,-0.36621 1.32085,-0.54932 0.839496,-0.34897 1.67898,-0.69651 2.519226,-1.04335 0.655406,-0.27078 1.310035,-0.5437 1.962671,-0.82217 0.22905,-0.0974 0.458038,-0.19477 0.694014,-0.29508 0.18651,-0.0803 0.373191,-0.16064 0.565341,-0.24339 0.444886,-0.16083 0.444925,-0.16072 1.03663,-0.16072 z m 0,9.36842 c 0.0976,1.47555 0.0978,1.47534 0.1974,2.9807 -2.784093,1.26551 -5.573912,2.51227 -8.432043,3.57084 -1.179787,0.44192 -2.33019,0.94926 -3.477307,1.48157 -0.712527,0.32669 -1.326466,0.53078 -2.094446,0.69659 v -2.98069 c 0.20874,-0.078 0.41746,-0.15585 0.63252,-0.23616 1.955954,-0.74682 3.851381,-1.59323 5.740735,-2.51871 6.125142,-2.99422 6.12506,-2.99414 7.433141,-2.99414 z m 0.1974,9.36842 v 2.98122 c -0.27814,0.0933 -0.55627,0.18652 -0.842842,0.28267 -3.498122,1.1854 -6.952182,2.49272 -10.404016,3.82509 -0.40169,0.15505 -0.803336,0.30974 -1.205094,0.46457 -0.64884,0.25007 -1.297365,0.50008 -1.946135,0.75034 -0.0567,-0.86551 -0.0982,-1.69098 0,-2.55488 0.62117,-0.74118 1.214754,-0.8723 2.091862,-1.03715 1.050308,-0.22041 2.02299,-0.56829 3.023588,-0.97255 0.18204,-0.0724 0.364356,-0.14456 0.551904,-0.21911 1.807628,-0.72726 3.592977,-1.51434 5.375383,-2.31045 0.21434,-0.0957 0.428733,-0.19132 0.649573,-0.2899 0.18928,-0.085 0.378588,-0.16972 0.573608,-0.25735 1.553259,-0.66216 1.553239,-0.6625 2.132169,-0.6625 z"
         inkscape:export-filename=".\path2-2.svg"
         inkscape:export-xdpi="96"
         inkscape:export-ydpi="96" /><path
         d="m 139.07641,190.72201 c -0.70029,0.252 -1.05535,0.14024 -1.7751,0 -1.52066,-0.11057 -2.98673,-0.007 -4.48707,0.25284 -0.12869,0.0215 -0.25742,0.043 -0.39003,0.0651 -2.71355,0.51288 -5.35893,1.49072 -7.96022,2.4484 -0.76665,0.28181 -1.53466,0.55921 -2.30265,0.83671 -0.23082,0.0834 -0.23082,0.0834 -0.46629,0.16856 -7.22872,2.60721 -7.22872,2.60721 -10.62578,3.25483 -0.18354,0.0371 -0.36707,0.0743 -0.55617,0.11255 -1.73079,0.32367 -3.43667,0.38902 -5.18826,0.37984 -0.21307,-2.6e-4 -0.21307,-2.6e-4 -0.43046,-5.4e-4 -2.6681,-0.007 -5.294255,-0.15194 -7.828695,-1.13061 0.66195,-0.39407 1.32708,-0.60956 2.05401,-0.8284 0.25931,-0.0798 0.51855,-0.15998 0.77771,-0.24037 0.136895,-0.0424 0.273795,-0.0849 0.414835,-0.12861 2.55991,-0.79982 5.03457,-1.7307 7.49035,-2.84814 0.13988,-0.0636 0.27975,-0.12714 0.42387,-0.19263 0.55491,-0.25259 1.10953,-0.50587 1.66379,-0.76014 8.65333,-3.96603 20.66435,-7.94799 29.18617,-1.38938 z"
         fill="#063359"
         id="path8"
         style="font-variation-settings:normal;vector-effect:none;fill:url(#linearGradient44);fill-opacity:1;stroke-width:0.204928;stroke-linecap:butt;stroke-linejoin:miter;stroke-miterlimit:4;stroke-dasharray:none;stroke-dashoffset:0;stroke-opacity:1;-inkscape-stroke:none;stop-color:#000000" /><path
         d="m 110.28033,112.36662 c 0.97716,0.13186 1.84583,0.25401 2.78592,0.50569 0.1917,0.0499 0.3834,0.0999 0.58092,0.15138 0.57783,0.19462 0.57783,0.19462 1.76123,0.83339 0,2.45925 0,4.9185 0,7.45228 -0.77291,-0.27667 -1.54583,-0.55334 -2.34215,-0.83838 -0.24354,-0.087 -0.48708,-0.17398 -0.73798,-0.26361 -0.19124,-0.0686 -0.38246,-0.13727 -0.57947,-0.20798 -0.29437,-0.10538 -0.29437,-0.10538 -0.59469,-0.21287 -0.47931,-0.18054 -0.47931,-0.18054 -0.87378,-0.39346 0,-2.31873 0,-4.63745 0,-7.02644 z"
         fill="#073358"
         id="path22"
         style="font-variation-settings:normal;vector-effect:none;fill:url(#linearGradient45);fill-opacity:1;stroke-width:0.204928;stroke-linecap:butt;stroke-linejoin:miter;stroke-miterlimit:4;stroke-dasharray:none;stroke-dashoffset:0;stroke-opacity:1;-inkscape-stroke:none;stop-color:#000000" /><path
         d="m 110.28033,150.26678 c 0.34681,0.0387 0.6919,0.0956 1.03547,0.15969 0.18814,0.034 0.37628,0.0681 0.57013,0.10314 1.11401,0.23858 2.21859,0.52609 3.32523,0.80178 0,2.38899 0,4.77798 0,7.23936 -1.14706,-0.13759 -2.21852,-0.28634 -3.34064,-0.53231 -0.25399,-0.0549 -0.50798,-0.10978 -0.76967,-0.16634 -0.62329,-0.15304 -0.62329,-0.15304 -1.01775,-0.36596 -0.005,-0.99677 -0.008,-1.99354 -0.0108,-2.99032 -7.3e-4,-0.33935 -0.002,-0.67869 -0.004,-1.01804 -0.002,-0.48675 -0.004,-0.97349 -0.004,-1.46025 -7.3e-4,-0.1526 -0.002,-0.30519 -0.003,-0.46241 -5e-5,-0.36523 0.0101,-0.73043 0.0224,-1.09542 0.0651,-0.0703 0.13017,-0.14053 0.19722,-0.21292 z"
         fill="#073257"
         id="path23"
         style="font-variation-settings:normal;vector-effect:none;fill:url(#linearGradient46);fill-opacity:1;stroke-width:0.204928;stroke-linecap:butt;stroke-linejoin:miter;stroke-miterlimit:4;stroke-dasharray:none;stroke-dashoffset:0;stroke-opacity:1;-inkscape-stroke:none;stop-color:#000000" /><path
         d="m 110.28033,137.49145 c 0.34128,0.0876 0.68226,0.17665 1.02314,0.26615 0.18992,0.0494 0.37985,0.0988 0.57553,0.14971 1.11947,0.32486 2.2242,0.70656 3.33215,1.07459 0,2.31873 0,4.63745 0,7.02644 -3.66289,-0.98857 -3.66289,-0.98857 -5.12806,-1.70338 -0.006,-0.73635 -0.009,-1.4727 -0.0123,-2.20907 -0.001,-0.20558 -0.003,-0.41115 -0.005,-0.62296 -0.004,-1.34087 0.0645,-2.65038 0.21456,-3.98148 z"
         fill="#083257"
         id="path25"
         style="font-variation-settings:normal;vector-effect:none;fill:url(#linearGradient47);fill-opacity:1;stroke-width:0.204928;stroke-linecap:butt;stroke-linejoin:miter;stroke-miterlimit:4;stroke-dasharray:none;stroke-dashoffset:0;stroke-opacity:1;-inkscape-stroke:none;stop-color:#000000" /><path
         d="m 110.28033,124.92904 c 2.36679,0.63876 2.36679,0.63876 5.12806,1.70337 0,2.31873 0,4.63745 0,7.02644 -1.28906,-0.41749 -2.46304,-0.83026 -3.67346,-1.42392 -0.48002,-0.23275 -0.96005,-0.4655 -1.4546,-0.70531 0,-2.17819 0,-4.35638 0,-6.60058 z"
         fill="#0a375c"
         id="path26"
         style="font-variation-settings:normal;vector-effect:none;fill:url(#linearGradient48);fill-opacity:1;stroke-width:0.204928;stroke-linecap:butt;stroke-linejoin:miter;stroke-miterlimit:4;stroke-dasharray:none;stroke-dashoffset:0;stroke-opacity:1;-inkscape-stroke:none;stop-color:#000000" /><path
         d="m 110.0831,163.46796 c 1.99698,0 1.99698,0 2.72506,0.13973 0.23168,0.0432 0.23168,0.0432 0.46804,0.0873 0.15446,0.0305 0.30891,0.0609 0.46805,0.0923 0.16131,0.0305 0.32263,0.0609 0.48884,0.0923 0.39201,0.0742 0.7837,0.15044 1.17531,0.22706 0.005,0.87547 0.008,1.75095 0.0108,2.62644 7.5e-4,0.29803 0.002,0.59607 0.004,0.8941 0.002,0.42756 0.004,0.85512 0.004,1.28268 0.001,0.38636 0.001,0.38636 0.003,0.78053 -0.0224,0.59099 -0.0224,0.59099 -0.21962,0.80391 -1.1902,-0.12703 -2.36961,-0.34105 -3.5502,-0.54561 -0.58579,-0.10101 -1.17157,-0.20201 -1.7751,-0.30607 0.0651,-2.03767 0.13017,-4.07534 0.19723,-6.17475 z"
         fill="#063156"
         id="path27"
         style="font-variation-settings:normal;vector-effect:none;fill:url(#linearGradient49);fill-opacity:1;stroke-width:0.204928;stroke-linecap:butt;stroke-linejoin:miter;stroke-miterlimit:4;stroke-dasharray:none;stroke-dashoffset:0;stroke-opacity:1;-inkscape-stroke:none;stop-color:#000000" /><path
         d="m 119.5503,115.9863 c 0.90955,0.1822 1.73605,0.47861 2.60102,0.82507 0.21413,0.0819 0.21413,0.0819 0.4326,0.16552 1.06163,0.42431 1.06163,0.42431 1.50276,1.13863 0.0479,0.49842 0.0479,0.49842 0.0455,1.08125 -3.7e-4,0.21217 -7.5e-4,0.42433 -0.001,0.64293 -0.004,0.33224 -0.004,0.33224 -0.007,0.6712 -1.4e-4,0.2182 -2.6e-4,0.43641 -4e-4,0.66122 -0.006,1.13177 -0.0515,2.21614 -0.23381,3.33107 -0.36001,-0.13175 -0.36001,-0.13175 -0.7273,-0.26615 -1.02474,-0.37052 -2.05865,-0.70587 -3.0941,-1.03966 -0.51773,-0.18465 -0.51773,-0.18465 -0.71496,-0.39757 -0.003,-0.50634 0.006,-1.00565 0.0238,-1.51125 0.004,-0.15093 0.009,-0.30186 0.0141,-0.45736 0.0151,-0.48386 0.0317,-0.96765 0.0483,-1.45145 0.0105,-0.32728 0.0209,-0.65457 0.0312,-0.98185 0.0255,-0.80391 0.0523,-1.60776 0.0797,-2.4116 z"
         fill="#073157"
         id="path28"
         style="font-variation-settings:normal;vector-effect:none;fill:url(#linearGradient50);fill-opacity:1;stroke-width:0.204928;stroke-linecap:butt;stroke-linejoin:miter;stroke-miterlimit:4;stroke-dasharray:none;stroke-dashoffset:0;stroke-opacity:1;-inkscape-stroke:none;stop-color:#000000" /><path
         d="m 119.15583,140.25944 c 0.64902,0.14012 1.164,0.26142 1.76585,0.50569 0.13832,0.056 0.27663,0.11198 0.41913,0.16967 0.14136,0.0582 0.28272,0.11637 0.42837,0.17633 0.21662,0.0873 0.21662,0.0873 0.43761,0.17632 1.06486,0.43428 1.06486,0.43428 1.28818,0.67536 0.0174,0.50584 0.0227,1.00544 0.0192,1.51125 -2.7e-4,0.15094 -5.5e-4,0.30187 -7.4e-4,0.45737 -7.5e-4,0.48383 -0.004,0.96763 -0.006,1.45145 -7.4e-4,0.32728 -0.002,0.65457 -0.003,0.98185 -0.002,0.80387 -0.005,1.60773 -0.01,2.4116 -1.57799,-0.31761 -2.77987,-0.84304 -4.33913,-1.49046 0,-2.31872 0,-4.63745 0,-7.02643 z"
         fill="#063358"
         id="path30"
         style="font-variation-settings:normal;vector-effect:none;fill:url(#linearGradient51);fill-opacity:1;stroke-width:0.204928;stroke-linecap:butt;stroke-linejoin:miter;stroke-miterlimit:4;stroke-dasharray:none;stroke-dashoffset:0;stroke-opacity:1;-inkscape-stroke:none;stop-color:#000000" /><path
         d="m 119.15583,128.33579 c 1.60843,0.49211 3.15378,1.09427 4.7336,1.70338 -0.0651,2.10793 -0.13018,4.21586 -0.19722,6.38767 -1.08344,-0.25992 -2.10439,-0.51299 -3.15575,-0.865 -0.21966,-0.0727 -0.43933,-0.14547 -0.66567,-0.22041 -0.51773,-0.19213 -0.51773,-0.19213 -0.71496,-0.40505 -0.0174,-0.48791 -0.0211,-0.9764 -0.0192,-1.46467 2.9e-4,-0.14621 5.6e-4,-0.29241 7.5e-4,-0.44305 7.4e-4,-0.46864 0.004,-0.93725 0.006,-1.40588 7.5e-4,-0.31703 0.002,-0.63406 0.003,-0.95108 0.002,-0.77865 0.005,-1.55728 0.01,-2.33591 z"
         fill="#073358"
         id="path31"
         style="font-variation-settings:normal;vector-effect:none;fill:url(#linearGradient52);fill-opacity:1;stroke-width:0.204928;stroke-linecap:butt;stroke-linejoin:miter;stroke-miterlimit:4;stroke-dasharray:none;stroke-dashoffset:0;stroke-opacity:1;-inkscape-stroke:none;stop-color:#000000" /><path
         d="m 119.15583,152.396 c 0.35353,0.0925 0.70687,0.1858 1.06014,0.27946 0.19678,0.0519 0.39356,0.10375 0.59632,0.1572 0.9004,0.25619 1.79079,0.55203 2.68268,0.84088 0,2.17819 0,4.35639 0,6.60059 -1.497,-0.35132 -2.994,-0.70265 -4.53637,-1.06461 -0.0153,-2.28974 -0.0151,-4.53429 0.19723,-6.81352 z"
         fill="#073156"
         id="path33"
         style="font-variation-settings:normal;vector-effect:none;fill:url(#linearGradient53);fill-opacity:1;stroke-width:0.204928;stroke-linecap:butt;stroke-linejoin:miter;stroke-miterlimit:4;stroke-dasharray:none;stroke-dashoffset:0;stroke-opacity:1;-inkscape-stroke:none;stop-color:#000000" /><path
         d="m 119.5503,164.95841 c 0.39875,0.0608 0.79729,0.12327 1.19574,0.18631 0.33293,0.0519 0.33293,0.0519 0.67258,0.1048 0.70223,0.136 1.39037,0.349 2.07636,0.56058 0,1.89714 0,3.79428 0,5.7489 -2.77361,0.0285 -2.77361,0.0285 -4.14191,-0.21292 -0.005,-0.84126 -0.008,-1.68251 -0.0108,-2.52377 -0.001,-0.42713 -0.004,-0.85426 -0.007,-1.28138 -6.4e-4,-0.26761 -10e-4,-0.53522 -0.002,-0.81093 -7.5e-4,-0.24754 -0.002,-0.49508 -0.003,-0.75012 0.0224,-0.59562 0.0224,-0.59562 0.21963,-1.02147 z"
         fill="#052f55"
         id="path34"
         style="font-variation-settings:normal;vector-effect:none;fill:url(#linearGradient61);fill-opacity:1;stroke-width:0.204928;stroke-linecap:butt;stroke-linejoin:miter;stroke-miterlimit:4;stroke-dasharray:none;stroke-dashoffset:0;stroke-opacity:1;-inkscape-stroke:none;stop-color:#000000" /></g></g></svg>
